# xmcd
#
# Track frame offsets: 
#        150
#        14272
#        24888
#        40349
#        55030
#        67905
#        79282
#        95592
#        106975
#        118781
#        134401
#        146535
#        163390
#        173271
#        186256
#
# Disc length: 2759 seconds
#
# Revision: 0
# Processed by: cddbd v1.5.2PL0 Copyright (c) Steve Scherf et al.
# Submitted via: ExactAudioCopy v0.95b3
#
DISCID=c40ac50f
DTITLE=Carole King  - Rhymes and Reasons (+3)  (1972)  FLAC
DYEAR=1900
DGENRE=
TTITLE0=Come Down Easy
TTITLE1=My My She Cries
TTITLE2=Peace In the Valley
TTITLE3=Feeling Sad Tonight
TTITLE4=The First Day in August
TTITLE5=Bitter With the Sweet
TTITLE6=Goodbye Don't Mean I'm Gone
TTITLE7=Stand Behind Me
TTITLE8=Gotta Get Through Another Day
TTITLE9=I Think I Can Hear You
TTITLE10=Ferguson Road
TTITLE11=Been to Canaan
TTITLE12=Ties That Bind
TTITLE13=At This Time In My Life
TTITLE14=Believe In Humanity (Live In Central Park, NYC)
EXTD=
EXTT0=
EXTT1=
EXTT2=
EXTT3=
EXTT4=
EXTT5=
EXTT6=
EXTT7=
EXTT8=
EXTT9=
EXTT10=
EXTT11=
EXTT12=
EXTT13=
EXTT14=
PLAYORDER=
